<?xml version="1.0" encoding="UTF-8"?><svg id="Layer_2" xmlns="http://www.w3.org/2000/svg" width="536.55" height="284.06" xmlns:xlink="http://www.w3.org/1999/xlink" viewBox="0 0 536.55 284.06"><defs><style>.cls-1{fill:url(#linear-gradient);}.cls-1,.cls-2,.cls-3{stroke-width:0px;}.cls-2{fill:url(#linear-gradient-2);}.cls-3{fill:url(#linear-gradient-3);}</style><linearGradient id="linear-gradient" x1="224.38" y1="297.7" x2="394.16" y2="127.92" gradientTransform="translate(212.02 -156.26) rotate(51.42)" gradientUnits="userSpaceOnUse"><stop offset="0" stop-color="#1dff8b"/><stop offset="1" stop-color="#000"/></linearGradient><linearGradient id="linear-gradient-2" x1="144.36" y1="216.64" x2="344.05" y2="16.94" xlink:href="#linear-gradient"/><linearGradient id="linear-gradient-3" x1="-1.6" y1="142.03" x2="538.15" y2="142.03" gradientTransform="translate(212.02 -156.26) rotate(51.42)" gradientUnits="userSpaceOnUse"><stop offset="0" stop-color="#1dff8b"/><stop offset="1" stop-color="#000"/></linearGradient></defs><g id="Layer_1-2"><path class="cls-1" d="M238.15,203.55c-40.07-19.62-77.69-40.25-111.9-61.36.1,52.42,29.32,102.77,79.58,127.38,50.26,24.61,107.96,16.81,149.42-15.26-37.66-14.08-77.03-31.13-117.1-50.75Z"/><path class="cls-2" d="M133.16,106.38c31.1,22.8,73.16,47.57,118.42,69.73,45.04,22.05,90.21,40.03,127.2,50.63l2.86.82c5.35-7.1,10.11-14.8,14.16-23.08,34.48-70.44,5.34-155.49-65.1-189.97-70.44-34.48-155.49-5.34-189.97,65.1-4.05,8.28-7.22,16.76-9.55,25.34l1.98,1.45Z"/><path class="cls-3" d="M409.57,149.65c-.4,8.14-1.51,16.31-3.36,24.41,36.78,26.93,57.07,50.07,51.26,61.96-5.83,11.91-36.65,10.04-80.61-2.55-36.11-10.35-81.09-27.93-128.35-51.07-47.49-23.25-89.13-48.11-119.49-70.37-36.63-26.86-56.83-49.93-51.02-61.79s36.3-10.06,79.86,2.34c5.27-6.44,11.05-12.34,17.24-17.66C82.2.58,12.05-10.41,1.39,11.37c-10.64,21.73,40.81,70.23,124.58,122.41,33.81,21.07,72.88,42.73,115.27,63.48,42.2,20.66,83.1,38.17,120.34,51.93,92.84,34.3,162.92,45.27,173.58,23.5,10.68-21.82-41.22-70.62-125.59-123.04Z"/></g></svg>