<?xml version="1.0" encoding="UTF-8"?><svg id="Layer_2" xmlns="http://www.w3.org/2000/svg" width="591.81" height="284.02" xmlns:xlink="http://www.w3.org/1999/xlink" viewBox="0 0 591.81 284.02"><defs><style>.cls-1{fill:url(#linear-gradient);}.cls-1,.cls-2,.cls-3{stroke-width:0px;}.cls-2{fill:url(#linear-gradient-2);}.cls-3{fill:url(#linear-gradient-3);}</style><linearGradient id="linear-gradient" x1="242.92" y1="337.99" x2="412.7" y2="168.22" gradientTransform="translate(88.56 -127.27) rotate(19.96)" gradientUnits="userSpaceOnUse"><stop offset="0" stop-color="#ffdf15"/><stop offset="1" stop-color="#000"/></linearGradient><linearGradient id="linear-gradient-2" x1="162.9" y1="256.93" x2="362.59" y2="57.23" xlink:href="#linear-gradient"/><linearGradient id="linear-gradient-3" x1="16.93" y1="182.32" x2="556.69" y2="182.32" xlink:href="#linear-gradient"/></defs><g id="Layer_1-2"><path class="cls-1" d="M302.32,210.21c-44.42,4.18-87.27,6.21-127.48,6.06,27.44,44.66,78.65,72.36,134.37,67.11,55.71-5.24,100.86-42.01,119.48-91.01-39.47,7.65-81.96,13.65-126.37,17.83Z"/><path class="cls-2" d="M162.05,182.12c38.43,3.22,87.23,2.39,137.41-2.33,49.93-4.7,97.84-12.94,134.93-23.21l2.86-.79c.85-8.85.89-17.9.03-27.08C429.93,50.62,360.68-6.71,282.6.63c-78.08,7.35-135.42,76.6-128.07,154.68.86,9.18,2.59,18.06,5.08,26.6l2.44.2Z"/><path class="cls-3" d="M420.41,74.76c3.91,7.16,7.23,14.7,9.88,22.58,45.43,3.78,74.82,12.92,76.06,26.1,1.24,13.2-26.03,27.69-70.09,39.89-36.2,10.02-83.75,18.5-136.14,23.43-52.64,4.95-101.14,5.48-138.65,2.34-45.27-3.79-74.53-12.93-75.77-26.07s25.72-27.53,69.34-39.69c1.13-8.25,2.98-16.29,5.49-24.06C63.36,118.47-2.22,145.71.06,169.85c2.27,24.09,71.47,38.6,170.15,39.4,39.84.32,84.47-1.59,131.46-6.01,46.78-4.4,90.8-10.82,129.75-18.52,97.09-19.2,162.6-46.42,160.33-70.55-2.28-24.19-72.02-38.72-171.34-39.41Z"/></g></svg>