<?xml version="1.0" encoding="UTF-8"?><svg id="Layer_2" xmlns="http://www.w3.org/2000/svg" width="284.8" height="536.01" xmlns:xlink="http://www.w3.org/1999/xlink" viewBox="0 0 284.8 536.01"><defs><style>.cls-1{fill:url(#linear-gradient);}.cls-1,.cls-2,.cls-3{stroke-width:0px;}.cls-2{fill:url(#linear-gradient-2);}.cls-3{fill:url(#linear-gradient-3);}</style><linearGradient id="linear-gradient" x1="98.51" y1="423.68" x2="268.28" y2="253.9" gradientTransform="translate(408.2 121.54) rotate(89.13)" gradientUnits="userSpaceOnUse"><stop offset="0" stop-color="#b900bf"/><stop offset="1" stop-color="#000"/></linearGradient><linearGradient id="linear-gradient-2" x1="18.48" y1="342.61" x2="218.18" y2="142.91" xlink:href="#linear-gradient"/><linearGradient id="linear-gradient-3" x1="-127.48" y1="268" x2="412.27" y2="268" gradientTransform="translate(408.2 121.54) rotate(89.13)" gradientUnits="userSpaceOnUse"><stop offset="0" stop-color="#b900bf"/><stop offset="1" stop-color="#000"/></linearGradient></defs><g id="Layer_1-2"><path class="cls-1" d="M80.94,298.26c-19.7-40.03-36.85-79.36-51-116.99-31.98,41.53-39.66,99.24-14.94,149.45,24.71,50.21,75.13,79.32,127.55,79.31-21.19-34.17-41.9-71.74-61.6-111.77Z"/><path class="cls-2" d="M57.31,157.17c10.66,37.06,28.79,82.38,51.05,127.6,22.15,44.99,46.89,86.85,69.68,117.85l1.76,2.39c8.57-2.35,17.05-5.53,25.32-9.6,70.36-34.64,99.32-119.75,64.69-190.11-34.64-70.36-119.75-99.32-190.11-64.69-8.27,4.07-15.96,8.85-23.05,14.21l.68,2.35Z"/><path class="cls-3" d="M249.53,360.45c-5.3,6.2-11.17,11.98-17.59,17.26,12.62,43.8,14.53,74.52,2.66,80.37-11.89,5.85-35.14-14.48-62.21-51.32-22.24-30.27-47.07-71.69-70.31-118.91-23.35-47.44-41.09-92.58-51.49-128.75-12.55-43.66-14.42-74.26-2.58-80.09s34.87,14.25,61.75,50.69c8.11-1.87,16.29-3.01,24.44-3.43C81.7,42.29,32.92-9.31,11.16,1.4-10.55,12.09.5,81.92,34.85,174.44c13.87,37.35,31.52,78.38,52.37,120.72,20.75,42.16,42.4,81.02,63.45,114.69,52.47,83.91,101.21,135.46,122.96,124.76,21.8-10.73,10.57-81.08-24.1-174.16Z"/></g></svg>