<?xml version="1.0" encoding="UTF-8"?><svg id="Layer_2" xmlns="http://www.w3.org/2000/svg" width="489.06" height="359.56" xmlns:xlink="http://www.w3.org/1999/xlink" viewBox="0 0 489.06 359.56"><defs><style>.cls-1{fill:url(#linear-gradient);}.cls-1,.cls-2,.cls-3{stroke-width:0px;}.cls-2{fill:url(#linear-gradient-2);}.cls-3{fill:url(#linear-gradient-3);}</style><linearGradient id="linear-gradient" x1="200.64" y1="335.45" x2="370.42" y2="165.67" gradientTransform="translate(282.44 -121.35) rotate(60.85)" gradientUnits="userSpaceOnUse"><stop offset="0" stop-color="#ff004e"/><stop offset="1" stop-color="#000"/></linearGradient><linearGradient id="linear-gradient-2" x1="120.62" y1="254.38" x2="320.31" y2="54.69" xlink:href="#linear-gradient"/><linearGradient id="linear-gradient-3" x1="-25.35" y1="179.78" x2="514.41" y2="179.78" xlink:href="#linear-gradient"/></defs><g id="Layer_1-2"><path class="cls-1" d="M204.74,235.53c-36.32-25.92-70.04-52.43-100.34-78.87-8.49,51.73,12.09,106.19,57.64,138.69,45.55,32.51,103.74,34.27,149.9,9.42-34.85-20.06-70.89-43.33-107.2-69.25Z"/><path class="cls-2" d="M117.09,122.47c26.94,27.59,64.37,58.91,105.4,88.19,40.82,29.13,82.44,54.27,117.19,70.78l2.68,1.28c6.44-6.13,12.39-12.95,17.75-20.45,45.56-63.83,30.74-152.51-33.09-198.07s-152.51-30.74-198.07,33.09c-5.36,7.5-9.87,15.35-13.57,23.43l1.71,1.75Z"/><path class="cls-3" d="M382.67,210.44c-1.73,7.97-4.16,15.84-7.31,23.53,31.87,32.59,48.1,58.75,40.41,69.52-7.7,10.79-37.8,3.9-79.1-15.72-33.93-16.12-75.42-40.84-118.25-71.41-43.03-30.71-80.04-62.06-106.34-89-31.74-32.5-47.88-58.56-40.21-69.31,7.66-10.73,37.46-3.98,78.4,15.39,6.25-5.49,12.92-10.36,19.9-14.6C84.14,9.76,16.74-12.58,2.66,7.16c-14.06,19.7,28.76,75.96,102.84,141.17,29.9,26.32,64.89,54.09,103.31,81.51,38.25,27.3,75.72,51.27,110.21,70.94,85.96,49.04,153.31,71.35,167.39,51.62,14.11-19.78-29.1-76.42-103.73-141.96Z"/></g></svg>