<?xml version="1.0" encoding="UTF-8"?><svg id="Layer_2" xmlns="http://www.w3.org/2000/svg" width="261.51" height="276.46" xmlns:xlink="http://www.w3.org/1999/xlink" viewBox="0 0 261.51 276.46"><defs><style>.cls-1{fill:url(#linear-gradient);}.cls-1,.cls-2,.cls-3,.cls-4,.cls-5,.cls-6{stroke-width:0px;}.cls-1,.cls-2,.cls-6{opacity:.99;}.cls-2,.cls-3{fill:#9b1b1b;}.cls-4{fill:#7f1717;}.cls-5{fill:#fff;}.cls-7{fill:#dd2424;stroke:#8c1818;}.cls-7,.cls-8{stroke-miterlimit:10;stroke-width:3px;}.cls-8{fill:none;stroke:#000;}.cls-6{fill:#191519;}</style><linearGradient id="linear-gradient" x1="172.91" y1="166.15" x2="172.96" y2="166.2" gradientUnits="userSpaceOnUse"><stop offset="0" stop-color="#006380"/><stop offset=".34" stop-color="#4d4d4d"/><stop offset=".68" stop-color="#3d5066"/><stop offset="1" stop-color="#000"/></linearGradient></defs><g id="Layer_2-2"><path class="cls-1" d="M172.99,166.17h-.12s.07,0,.1-.01c.01,0,.01.01.01.01Z"/><circle class="cls-6" cx="122.01" cy="143.84" r="26.52"/><circle class="cls-6" cx="119.36" cy="183.63" r="18.57"/><path class="cls-6" d="M106.09,191.58c-1.65,4.01-3.85,9.87-5.3,15.91-.32,1.33-.73,3.21,0,5.3,1.08,3.09,3.96,4.68,5.3,5.3"/><path class="cls-6" d="M127.71,192.36c1.65,4.01,3.85,9.87,5.3,15.91.32,1.33.73,3.21,0,5.3-1.08,3.09-3.96,4.68-5.3,5.3"/><polygon class="cls-6" points="130.57 168.94 190.97 159.76 212.19 106.71 185.67 58.97 222.8 106.71 198.65 168.94 133.42 171.53 130.57 168.94"/><polygon class="cls-6" points="130.57 171.53 180.36 180.97 233.41 165.06 244.02 127.93 238.71 170.36 180.36 186.28 133.42 176.89 127.31 175.67 130.57 171.53"/><polygon class="cls-6" points="130.57 174.43 196.28 202.19 201.58 244.63 185.67 276.46 196.28 239.33 190.97 207.5 132.62 180.97 130.57 174.43"/><polygon class="cls-6" points="137.92 180.97 175.06 218.11 175.06 247.11 156.49 269.24 169.75 239.33 169.75 223.41 135.78 183.63 137.92 180.97"/><polygon class="cls-6" points="113.45 166.63 53.05 157.44 31.83 104.39 58.35 56.65 21.22 104.39 45.37 166.63 110.6 169.21 113.45 166.63"/><polygon class="cls-6" points="113.45 169.21 63.66 178.66 10.61 162.75 0 125.61 5.3 168.05 63.66 183.97 110.6 174.58 116.7 173.36 113.45 169.21"/><polygon class="cls-6" points="108.15 172.11 42.44 199.88 37.13 242.32 53.05 274.15 42.44 237.01 47.74 205.18 106.09 178.66 108.15 172.11"/><polygon class="cls-6" points="100.79 178.66 63.66 215.79 63.66 244.8 82.22 266.92 68.96 237.01 68.96 221.1 102.93 181.31 100.79 178.66"/><ellipse class="cls-2" cx="122.42" cy="197.41" rx="3.39" ry="3.29"/><ellipse class="cls-2" cx="114.56" cy="195.92" rx="3.29" ry="3.64" transform="translate(-101.37 265.81) rotate(-77.62)"/><circle class="cls-2" cx="107.26" cy="191.26" r="2.65"/><ellipse class="cls-2" cx="130.29" cy="192.53" rx="2.98" ry="2.87"/><circle class="cls-5" cx="113.9" cy="197.1" r="1.49"/><circle class="cls-5" cx="122.84" cy="198.59" r="1.49"/><circle class="cls-5" cx="107.2" cy="191.89" r=".74"/><circle class="cls-5" cx="129.54" cy="193.38" r=".74"/><polygon class="cls-3" points="113.07 155.61 130.29 156.89 124.33 144.34 131.77 133.05 115.21 131.28 119.86 144.08 113.07 155.61"/><polygon class="cls-4" points="113.9 155.4 120.98 144.08 116.88 133.05 128.8 134.54 123.36 144.23 128.8 156.05 113.9 155.4"/><path class="cls-7" d="M148.09,22.5l-15.63,15.63-15.63-15.63c-12.39-12.39,3.24-28.02,15.63-15.63,12.4-12.4,28.04,3.23,15.63,15.63Z"/><path class="cls-8" d="M201.35,22.77l-16.49,16.49-16.49-16.49c-13.07-13.07,3.42-29.55,16.49-16.49,13.08-13.08,29.57,3.41,16.49,16.49Z"/><path class="cls-8" d="M255.22,23.38l-16.49,16.49-16.49-16.49c-13.07-13.07,3.42-29.55,16.49-16.49,13.08-13.08,29.57,3.41,16.49,16.49Z"/></g></svg>